<?xml version="1.0" encoding="UTF-8" standalone="no"?>
<svg
   xmlns:dc="http://purl.org/dc/elements/1.1/"
   xmlns:cc="http://creativecommons.org/ns#"
   xmlns:rdf="http://www.w3.org/1999/02/22-rdf-syntax-ns#"
   xmlns:svg="http://www.w3.org/2000/svg"
   xmlns="http://www.w3.org/2000/svg"
   xmlns:sodipodi="http://sodipodi.sourceforge.net/DTD/sodipodi-0.dtd"
   xmlns:inkscape="http://www.inkscape.org/namespaces/inkscape"
   viewBox="0 0 793.7007874015749 1122.5196850393702"
   width="793.7007874015749"
   height="1122.5196850393702"
   version="1.1"
   id="svg52"
   sodipodi:docname="qc-fs-back.svg"
   inkscape:version="1.0.2-2 (e86c870879, 2021-01-15)">
  <metadata
     id="metadata56">
    <rdf:RDF>
      <cc:Work
         rdf:about="">
        <dc:format>image/svg+xml</dc:format>
        <dc:type
           rdf:resource="http://purl.org/dc/dcmitype/StillImage" />
        <dc:title></dc:title>
      </cc:Work>
    </rdf:RDF>
  </metadata>
  <sodipodi:namedview
     pagecolor="#ffffff"
     bordercolor="#666666"
     borderopacity="1"
     objecttolerance="10"
     gridtolerance="10"
     guidetolerance="10"
     inkscape:pageopacity="0"
     inkscape:pageshadow="2"
     inkscape:window-width="2560"
     inkscape:window-height="1377"
     id="namedview54"
     showgrid="false"
     inkscape:zoom="1.0543401"
     inkscape:cx="396.8504"
     inkscape:cy="561.25983"
     inkscape:window-x="-8"
     inkscape:window-y="-8"
     inkscape:window-maximized="1"
     inkscape:current-layer="g50"
     inkscape:document-rotation="0" />
  <defs
     id="defs14">
    <marker
       id="DistanceX"
       orient="auto"
       refX="0.0"
       refY="0.0"
       style="overflow:visible">
      <path
         d="M 3,-3 L -3,3 M 0,-5 L  0,5"
         style="stroke:#000000; stroke-width:0.5"
         id="path2" />
    </marker>
    <pattern
       id="Hatch"
       patternUnits="userSpaceOnUse"
       width="8"
       height="8"
       x="0"
       y="0">
      <path
         d="M8 4 l-4,4"
         stroke="#000000"
         stroke-width="0.25"
         linecap="square"
         id="path5" />
      <path
         d="M6 2 l-4,4"
         stroke="#000000"
         stroke-width="0.25"
         linecap="square"
         id="path7" />
      <path
         d="M4 0 l-4,4"
         stroke="#000000"
         stroke-width="0.25"
         linecap="square"
         id="path9" />
    </pattern>
    <symbol
       id="*MODEL_SPACE" />
    <symbol
       id="*PAPER_SPACE" />
  </defs>
  <g
     inkscape:groupmode="layer"
     inkscape:label="0"
     id="g16" />
  <desc
     id="desc18">qc-fs-back.dxf - scale = 1.000000, origin = (0.000000, 0.000000), method = manual</desc>
  <g
     inkscape:groupmode="layer"
     inkscape:label="OUTER_PROFILES"
     id="g22" />
  <g
     inkscape:groupmode="layer"
     inkscape:label="INTERIOR_PROFILES"
     id="g40" />
  <g
     inkscape:groupmode="layer"
     inkscape:label="BEND"
     id="g44" />
  <g
     inkscape:groupmode="layer"
     inkscape:label="BEND_EXTENT"
     id="g50">
    <path
       d="M 130.13025,85.77102 V 1015.5348 H 683.92136 V 85.77102 Z"
       style="fill:none;stroke:#000000"
       id="path20" />
    <path
       d="m 347.54339,983.40881 a 5.669295,5.669295 0 1 0 0,11.33859 5.669295,5.669295 0 1 0 0,-11.33859 z"
       style="fill:none;stroke:#000000"
       id="path24" />
    <path
       d="m 151.87818,983.40881 a 5.669295,5.669295 0 1 0 0,11.33859 5.669295,5.669295 0 1 0 0,-11.33859 z"
       style="fill:none;stroke:#000000"
       id="path26" />
    <path
       d="m 347.54339,106.55842 a 5.669295,5.669295 0 1 0 0,11.33859 5.669295,5.669295 0 1 0 0,-11.33859 z"
       style="fill:none;stroke:#000000"
       id="path28" />
    <path
       d="m 659.35446,106.55842 a 5.669295,5.669295 0 1 0 0,11.33859 5.669295,5.669295 0 1 0 0,-11.33859 z"
       style="fill:none;stroke:#000000"
       id="path30" />
    <path
       d="m 285.09088,983.40881 a 5.669295,5.669295 0 1 0 0,11.33859 5.669295,5.669295 0 1 0 0,-11.33859 z"
       style="fill:none;stroke:#000000"
       id="path32" />
    <path
       d="m 151.87818,106.55842 a 5.669295,5.669295 0 1 0 0,11.33859 5.669295,5.669295 0 1 0 0,-11.33859 z"
       style="fill:none;stroke:#000000"
       id="path34" />
    <path
       d="m 285.09088,106.55842 a 5.669295,5.669295 0 1 0 0,11.33859 5.669295,5.669295 0 1 0 0,-11.33859 z"
       style="fill:none;stroke:#000000"
       id="path36" />
    <path
       d="m 659.35446,983.40881 a 5.669295,5.669295 0 1 0 0,11.33859 5.669295,5.669295 0 1 0 0,-11.33859 z"
       style="fill:none;stroke:#000000"
       id="path38" />
    <path
       d="M 316.31713,85.77102 V 1015.5348"
       style="fill:none;stroke:#000000"
       id="path42" />
    <path
       d="M 324.86622,1015.5348 V 85.77102"
       style="fill:none;stroke:#000000"
       id="path46" />
    <path
       d="M 307.76804,85.77102 V 1015.5348"
       style="fill:none;stroke:#000000"
       id="path48" />
    <path
       id="MassCenter_path28"
       d="m 344.54339,112.22772 h 3 3 m -3,-3 v 3 3"
       style="fill:none;stroke:#000000;stroke-width:0.5" />
    <path
       id="MassCenter_path34"
       d="m 148.87818,112.22771 h 3 3 m -3,-3 v 3 3"
       style="fill:none;stroke:#000000;stroke-width:0.5" />
    <path
       id="MassCenter_path36"
       d="m 282.09088,112.22771 h 3 3 m -3,-3 v 3 3"
       style="fill:none;stroke:#000000;stroke-width:0.5" />
    <path
       id="MassCenter_path30"
       d="m 656.35446,112.22772 h 3 3 m -3,-3 v 3 3"
       style="fill:none;stroke:#000000;stroke-width:0.5" />
    <path
       id="MassCenter_path38"
       d="m 656.35446,989.07811 h 3 3 m -3,-3 v 3 3"
       style="fill:none;stroke:#000000;stroke-width:0.5" />
    <path
       id="MassCenter_path24"
       d="m 344.54339,989.07811 h 3 3 m -3,-3 v 3 3"
       style="fill:none;stroke:#000000;stroke-width:0.5" />
    <path
       id="MassCenter_path32"
       d="m 282.09088,989.0781 h 3 3 m -3,-3 v 3 3"
       style="fill:none;stroke:#000000;stroke-width:0.5" />
    <path
       id="MassCenter_path26"
       d="m 148.87818,989.0781 h 3 3 m -3,-3 v 3 3"
       style="fill:none;stroke:#000000;stroke-width:0.5" />
  </g>
</svg>
