<?xml version="1.0" encoding="UTF-8" standalone="no"?>
<svg
   xmlns:dc="http://purl.org/dc/elements/1.1/"
   xmlns:cc="http://creativecommons.org/ns#"
   xmlns:rdf="http://www.w3.org/1999/02/22-rdf-syntax-ns#"
   xmlns:svg="http://www.w3.org/2000/svg"
   xmlns="http://www.w3.org/2000/svg"
   xmlns:sodipodi="http://sodipodi.sourceforge.net/DTD/sodipodi-0.dtd"
   xmlns:inkscape="http://www.inkscape.org/namespaces/inkscape"
   viewBox="0 0 793.7007874015749 1122.5196850393702"
   width="793.7007874015749"
   height="1122.5196850393702"
   version="1.1"
   id="svg94"
   sodipodi:docname="qc-fs-front.svg"
   inkscape:version="1.0.2-2 (e86c870879, 2021-01-15)">
  <metadata
     id="metadata98">
    <rdf:RDF>
      <cc:Work
         rdf:about="">
        <dc:format>image/svg+xml</dc:format>
        <dc:type
           rdf:resource="http://purl.org/dc/dcmitype/StillImage" />
        <dc:title />
      </cc:Work>
    </rdf:RDF>
  </metadata>
  <sodipodi:namedview
     pagecolor="#ffffff"
     bordercolor="#666666"
     borderopacity="1"
     objecttolerance="10"
     gridtolerance="10"
     guidetolerance="10"
     inkscape:pageopacity="0"
     inkscape:pageshadow="2"
     inkscape:window-width="2560"
     inkscape:window-height="1377"
     id="namedview96"
     showgrid="false"
     inkscape:zoom="0.87534626"
     inkscape:cx="784.07056"
     inkscape:cy="455.70346"
     inkscape:window-x="-8"
     inkscape:window-y="-8"
     inkscape:window-maximized="1"
     inkscape:current-layer="g92"
     inkscape:document-rotation="0" />
  <defs
     id="defs14">
    <marker
       id="DistanceX"
       orient="auto"
       refX="0.0"
       refY="0.0"
       style="overflow:visible">
      <path
         d="M 3,-3 L -3,3 M 0,-5 L  0,5"
         style="stroke:#000000; stroke-width:0.5"
         id="path2" />
    </marker>
    <pattern
       id="Hatch"
       patternUnits="userSpaceOnUse"
       width="8"
       height="8"
       x="0"
       y="0">
      <path
         d="M8 4 l-4,4"
         stroke="#000000"
         stroke-width="0.25"
         linecap="square"
         id="path5" />
      <path
         d="M6 2 l-4,4"
         stroke="#000000"
         stroke-width="0.25"
         linecap="square"
         id="path7" />
      <path
         d="M4 0 l-4,4"
         stroke="#000000"
         stroke-width="0.25"
         linecap="square"
         id="path9" />
    </pattern>
    <symbol
       id="*MODEL_SPACE" />
    <symbol
       id="*PAPER_SPACE" />
  </defs>
  <g
     inkscape:groupmode="layer"
     inkscape:label="0"
     id="g16" />
  <desc
     id="desc18">qc-fs-front.dxf - scale = 1.000000, origin = (0.000000, 0.000000), method = manual</desc>
  <g
     inkscape:groupmode="layer"
     inkscape:label="OUTER_PROFILES"
     id="g22" />
  <g
     inkscape:groupmode="layer"
     inkscape:label="INTERIOR_PROFILES"
     id="g76" />
  <g
     inkscape:groupmode="layer"
     inkscape:label="BEND"
     id="g82" />
  <g
     inkscape:groupmode="layer"
     inkscape:label="BEND_EXTENT"
     id="g92">
    <path
       d="M 154.30984,1022.6421 H 642.66949 V 92.8783 H 154.30984 Z"
       style="fill:none;stroke:#000000"
       id="path20" />
    <path
       d="m 594.09852,113.6657 a 5.6692915,5.6692915 0 1 0 0,11.33858 5.6692915,5.6692915 0 1 0 0,-11.33858 z"
       style="fill:none;stroke:#000000"
       id="path24" />
    <path
       d="m 204.04764,113.6657 a 5.6692915,5.6692915 0 1 0 0,11.33858 5.6692915,5.6692915 0 1 0 0,-11.33858 z"
       style="fill:none;stroke:#000000"
       id="path26" />
    <path
       d="m 279.10057,113.6657 a 5.6692915,5.6692915 0 1 0 0,11.33858 5.6692915,5.6692915 0 1 0 0,-11.33858 z"
       style="fill:none;stroke:#000000"
       id="path28" />
    <path
       d="m 521.92361,990.51609 a 5.669305,5.669305 0 1 0 0,11.33861 5.669305,5.669305 0 1 0 0,-11.33861 z"
       style="fill:none;stroke:#000000"
       id="path30" />
    <path
       d="m 204.04764,990.51609 a 5.669305,5.669305 0 1 0 0,11.33861 5.669305,5.669305 0 1 0 0,-11.33861 z"
       style="fill:none;stroke:#000000"
       id="path32" />
    <path
       d="m 521.92361,113.6657 a 5.6692915,5.6692915 0 1 0 0,11.33858 5.6692915,5.6692915 0 1 0 0,-11.33858 z"
       style="fill:none;stroke:#000000"
       id="path34" />
    <path
       d="m 402.16765,113.6657 a 5.6692915,5.6692915 0 1 0 0,11.33858 5.6692915,5.6692915 0 1 0 0,-11.33858 z"
       style="fill:none;stroke:#000000"
       id="path36" />
    <path
       d="m 279.10057,990.51609 a 5.669305,5.669305 0 1 0 0,11.33861 5.669305,5.669305 0 1 0 0,-11.33861 z"
       style="fill:none;stroke:#000000"
       id="path38" />
    <path
       d="m 333.20767,930.29877 a 9.60945,9.60945 0 1 0 0,19.2189 9.60945,9.60945 0 1 0 0,-19.2189 z"
       style="fill:none;stroke:#000000"
       id="path40" />
    <path
       d="m 402.16765,990.51609 a 5.669305,5.669305 0 1 0 0,11.33861 5.669305,5.669305 0 1 0 0,-11.33861 z"
       style="fill:none;stroke:#000000"
       id="path42" />
    <path
       d="m 594.09852,990.51609 a 5.669305,5.669305 0 1 0 0,11.33861 5.669305,5.669305 0 1 0 0,-11.33861 z"
       style="fill:none;stroke:#000000"
       id="path44" />
    <path
       d="m 285.20767,917.23105 a 22.677165,22.677165 0 1 0 0,45.35433 22.677165,22.677165 0 1 0 0,-45.35433 z"
       style="fill:none;stroke:#000000"
       id="path46" />
    <path
       d="m 486.80767,662.83105 a 22.677165,22.677165 0 1 0 0,45.35433 22.677165,22.677165 0 1 0 0,-45.35433 z"
       style="fill:none;stroke:#000000"
       id="path48" />
    <path
       d="m 486.80767,154.03105 a 22.677165,22.677165 0 1 0 0,45.35433 22.677165,22.677165 0 1 0 0,-45.35433 z"
       style="fill:none;stroke:#000000"
       id="path50" />
    <path
       d="m 534.80767,421.49877 a 9.60945,9.60945 0 1 0 0,19.2189 9.60945,9.60945 0 1 0 0,-19.2189 z"
       style="fill:none;stroke:#000000"
       id="path52" />
    <path
       d="m 285.20767,408.43105 a 22.677165,22.677165 0 1 0 0,45.35433 22.677165,22.677165 0 1 0 0,-45.35433 z"
       style="fill:none;stroke:#000000"
       id="path54" />
    <path
       d="m 486.80767,408.43105 a 22.677165,22.677165 0 1 0 0,45.35433 22.677165,22.677165 0 1 0 0,-45.35433 z"
       style="fill:none;stroke:#000000"
       id="path56" />
    <path
       d="m 333.20767,167.09877 a 9.60945,9.60945 0 1 0 0,19.2189 9.60945,9.60945 0 1 0 0,-19.2189 z"
       style="fill:none;stroke:#000000"
       id="path58" />
    <path
       d="m 486.80767,917.23105 a 22.677165,22.677165 0 1 0 0,45.35433 22.677165,22.677165 0 1 0 0,-45.35433 z"
       style="fill:none;stroke:#000000"
       id="path60" />
    <path
       d="m 333.20767,675.89877 a 9.60945,9.60945 0 1 0 0,19.2189 9.60945,9.60945 0 1 0 0,-19.2189 z"
       style="fill:none;stroke:#000000"
       id="path62" />
    <path
       d="m 534.80767,167.09877 a 9.60945,9.60945 0 1 0 0,19.2189 9.60945,9.60945 0 1 0 0,-19.2189 z"
       style="fill:none;stroke:#000000"
       id="path64" />
    <path
       d="m 534.80767,930.29877 a 9.60945,9.60945 0 1 0 0,19.2189 9.60945,9.60945 0 1 0 0,-19.2189 z"
       style="fill:none;stroke:#000000"
       id="path66" />
    <path
       d="m 534.80767,675.89877 a 9.60945,9.60945 0 1 0 0,19.2189 9.60945,9.60945 0 1 0 0,-19.2189 z"
       style="fill:none;stroke:#000000"
       id="path68" />
    <path
       d="m 285.20767,662.83105 a 22.677165,22.677165 0 1 0 0,45.35433 22.677165,22.677165 0 1 0 0,-45.35433 z"
       style="fill:none;stroke:#000000"
       id="path70" />
    <path
       d="m 285.20767,154.03105 a 22.677165,22.677165 0 1 0 0,45.35433 22.677165,22.677165 0 1 0 0,-45.35433 z"
       style="fill:none;stroke:#000000"
       id="path72" />
    <path
       d="m 333.20767,421.49877 a 9.60945,9.60945 0 1 0 0,19.2189 9.60945,9.60945 0 1 0 0,-19.2189 z"
       style="fill:none;stroke:#000000"
       id="path74" />
    <path
       d="M 552.72677,1022.6421 V 92.8783"
       style="fill:none;stroke:#000000"
       id="path78" />
    <path
       d="M 247.50796,1022.6421 V 92.8783"
       style="fill:none;stroke:#000000"
       id="path80" />
    <path
       d="M 554.62656,1022.6421 V 92.8783"
       style="fill:none;stroke:#000000"
       id="path84" />
    <path
       d="M 550.82697,1022.6421 V 92.8783"
       style="fill:none;stroke:#000000"
       id="path86" />
    <path
       d="m 254.15725,92.8783 v 929.7638"
       style="fill:none;stroke:#000000"
       id="path88" />
    <path
       d="M 240.85867,1022.6421 V 92.8783"
       style="fill:none;stroke:#000000"
       id="path90" />
    <path
       id="MassCenter_path26"
       d="m 201.04764,119.33499 h 3 3 m -3,-3 v 3 3"
       style="fill:none;stroke:#000000;stroke-width:0.5" />
    <path
       id="MassCenter_path28"
       d="m 276.10057,119.33499 h 3 3 m -3,-3 v 3 3"
       style="fill:none;stroke:#000000;stroke-width:0.5" />
    <path
       id="MassCenter_path36"
       d="m 399.16765,119.33499 h 3 3 m -3,-3 v 3 3"
       style="fill:none;stroke:#000000;stroke-width:0.5" />
    <path
       id="MassCenter_path34"
       d="m 518.92361,119.33499 h 3 3 m -3,-3 v 3 3"
       style="fill:none;stroke:#000000;stroke-width:0.5" />
    <path
       id="MassCenter_path24"
       d="m 591.09852,119.33499 h 3 3 m -3,-3 v 3 3"
       style="fill:none;stroke:#000000;stroke-width:0.5" />
    <path
       id="MassCenter_path64"
       d="m 531.80767,176.70822 h 3 3 m -3,-3 v 3 3"
       style="fill:none;stroke:#000000;stroke-width:0.5" />
    <path
       id="MassCenter_path50"
       d="m 483.80952,176.70821 h 3 3 m -3,-3 v 3 3"
       style="fill:none;stroke:#000000;stroke-width:0.5" />
    <path
       id="MassCenter_path58"
       d="m 330.20845,176.70822 h 3 3 m -3,-3 v 3 3"
       style="fill:none;stroke:#000000;stroke-width:0.5" />
    <path
       id="MassCenter_path72"
       d="m 282.20767,176.70822 h 3 3 m -3,-3 v 3 3"
       style="fill:none;stroke:#000000;stroke-width:0.5" />
    <path
       id="MassCenter_path54"
       d="m 282.20767,431.10822 h 3 3 m -3,-3 v 3 3"
       style="fill:none;stroke:#000000;stroke-width:0.5" />
    <path
       id="MassCenter_path74"
       d="m 330.20845,431.10822 h 3 3 m -3,-3 v 3 3"
       style="fill:none;stroke:#000000;stroke-width:0.5" />
    <path
       id="MassCenter_path56"
       d="m 483.80952,431.10821 h 3 3 m -3,-3 v 3 3"
       style="fill:none;stroke:#000000;stroke-width:0.5" />
    <path
       id="MassCenter_path52"
       d="m 531.80767,431.10822 h 3 3 m -3,-3 v 3 3"
       style="fill:none;stroke:#000000;stroke-width:0.5" />
    <path
       id="MassCenter_path48"
       d="m 483.80952,685.50821 h 3 3 m -3,-3 v 3 3"
       style="fill:none;stroke:#000000;stroke-width:0.5" />
    <path
       id="MassCenter_path68"
       d="m 531.80767,685.50822 h 3 3 m -3,-3 v 3 3"
       style="fill:none;stroke:#000000;stroke-width:0.5" />
    <path
       id="MassCenter_path62"
       d="m 330.20845,685.50822 h 3 3 m -3,-3 v 3 3"
       style="fill:none;stroke:#000000;stroke-width:0.5" />
    <path
       id="MassCenter_path70"
       d="m 282.20767,685.50822 h 3 3 m -3,-3 v 3 3"
       style="fill:none;stroke:#000000;stroke-width:0.5" />
    <path
       id="MassCenter_path46"
       d="m 282.20767,939.90821 h 3 3 m -3,-3 v 3 3"
       style="fill:none;stroke:#000000;stroke-width:0.5" />
    <path
       id="MassCenter_path40"
       d="m 330.20767,939.90822 h 3 3 m -3,-3 v 3 3"
       style="fill:none;stroke:#000000;stroke-width:0.5" />
    <path
       id="MassCenter_path60"
       d="m 483.80952,939.90821 h 3 3 m -3,-3 v 3 3"
       style="fill:none;stroke:#000000;stroke-width:0.5" />
    <path
       id="MassCenter_path66"
       d="m 531.80767,939.90822 h 3 3 m -3,-3 v 3 3"
       style="fill:none;stroke:#000000;stroke-width:0.5" />
    <path
       id="MassCenter_path44"
       d="m 591.09852,996.1854 h 3 3 m -3,-3 v 3 3"
       style="fill:none;stroke:#000000;stroke-width:0.5" />
    <path
       id="MassCenter_path30"
       d="m 518.92361,996.18539 h 3 3 m -3,-3 v 3 3"
       style="fill:none;stroke:#000000;stroke-width:0.5" />
    <path
       id="MassCenter_path42"
       d="m 399.16765,996.18539 h 3 3 m -3,-3 v 3 3"
       style="fill:none;stroke:#000000;stroke-width:0.5" />
    <path
       id="MassCenter_path38"
       d="m 276.10057,996.18539 h 3 3 m -3,-3 v 3 3"
       style="fill:none;stroke:#000000;stroke-width:0.5" />
    <path
       id="MassCenter_path32"
       d="m 201.04764,996.18539 h 3 3 m -3,-3 v 3 3"
       style="fill:none;stroke:#000000;stroke-width:0.5" />
    <text
       xml:space="preserve"
       style="font-style:normal;font-variant:normal;font-weight:normal;font-stretch:normal;font-size:13.3333px;line-height:1.25;font-family:sans-serif;-inkscape-font-specification:'sans-serif, Normal';font-variant-ligatures:normal;font-variant-caps:normal;font-variant-numeric:normal;font-variant-east-asian:normal;fill:#000000;fill-opacity:1;stroke:none"
       x="208.12706"
       y="-481.37531"
       id="text1131"
       transform="rotate(90)"><tspan
         sodipodi:role="line"
         id="tspan1129"
         x="208.12706"
         y="-481.37531">12mm</tspan></text>
    <text
       xml:space="preserve"
       style="font-style:normal;font-variant:normal;font-weight:normal;font-stretch:normal;font-size:13.3333px;line-height:1.25;font-family:sans-serif;-inkscape-font-specification:'sans-serif, Normal';font-variant-ligatures:normal;font-variant-caps:normal;font-variant-numeric:normal;font-variant-east-asian:normal;fill:#000000;fill-opacity:1;stroke:none"
       x="194.7755"
       y="-528.28876"
       id="text1131-1"
       transform="rotate(90)"><tspan
         sodipodi:role="line"
         id="tspan1157"
         x="194.7755"
         y="-528.28876">4mm</tspan></text>
    <text
       xml:space="preserve"
       style="font-style:normal;font-variant:normal;font-weight:normal;font-stretch:normal;font-size:13.3333px;line-height:1.25;font-family:sans-serif;-inkscape-font-specification:'sans-serif, Normal';font-variant-ligatures:normal;font-variant-caps:normal;font-variant-numeric:normal;font-variant-east-asian:normal;fill:#000000;fill-opacity:1;stroke:none"
       x="129.54399"
       y="-395.40338"
       id="text1131-1-7"
       transform="rotate(90)"><tspan
         sodipodi:role="line"
         id="tspan1183"
         x="129.54399"
         y="-395.40338">3mm</tspan></text>
    <path
       sodipodi:type="star"
       style="fill:#000000;stroke-width:0.999999;stroke-dasharray:0.999999, 0.999999"
       id="path914"
       sodipodi:sides="3"
       sodipodi:cx="495.8038"
       sodipodi:cy="551.78162"
       sodipodi:r1="19.420885"
       sodipodi:r2="9.7104425"
       sodipodi:arg1="0"
       sodipodi:arg2="1.0471976"
       inkscape:flatsided="true"
       inkscape:rounded="0"
       inkscape:randomized="0"
       d="M 515.22469,551.78162 486.09336,568.6006 V 534.96264 Z"
       inkscape:transform-center-x="-4.8552216" />
    <text
       xml:space="preserve"
       style="font-style:normal;font-variant:normal;font-weight:normal;font-stretch:normal;font-size:16px;line-height:1.25;font-family:sans-serif;-inkscape-font-specification:'sans-serif, Normal';font-variant-ligatures:normal;font-variant-caps:normal;font-variant-numeric:normal;font-variant-east-asian:normal;fill:#000000;fill-opacity:1;stroke:none"
       x="536.06006"
       y="-465.62039"
       id="text918"
       transform="rotate(90)"><tspan
         sodipodi:role="line"
         id="tspan916"
         x="536.06006"
         y="-465.62039">TOP</tspan></text>
  </g>
</svg>
